<svg width="27" height="30" viewBox="0 0 27 30" xmlns="http://www.w3.org/2000/svg">
<path d="M13.5 0C6.045 0 0 6.045 0 13.5C0 19.755 4.26 25.005 10.035 26.535L13.5 30L16.965 26.535C22.74 25.005 27 19.755 27 13.5C27 6.045 20.955 0 13.5 0ZM13.5 3C15.99 3 18 5.01 18 7.5C18 9.99 15.99 12 13.5 12C11.01 12 9 9.99 9 7.5C9 5.01 11.01 3 13.5 3ZM13.5 24.45C9.75 24.45 6.435 22.53 4.5 19.62C4.545 16.635 10.5 15 13.5 15C16.485 15 22.455 16.635 22.5 19.62C20.565 22.53 17.25 24.45 13.5 24.45Z" fill="currentColor"/>
</svg>
