<svg width="21" height="30" viewBox="0 0 21 30" xmlns="http://www.w3.org/2000/svg">
<path d="M10.5 0C4.71 0 0 4.71 0 10.5C0 18.375 10.5 30 10.5 30C10.5 30 21 18.375 21 10.5C21 4.71 16.29 0 10.5 0Z" fill="currentColor"/>
<path d="M9.19922 16.2383C9.19922 15.459 9.2959 14.8379 9.48926 14.375C9.68262 13.9121 10.0635 13.4053 10.6318 12.8545C11.2061 12.2979 11.5693 11.9023 11.7217 11.668C11.9561 11.3105 12.0732 10.9238 12.0732 10.5078C12.0732 9.95703 11.9355 9.53809 11.6602 9.25098C11.3906 8.95801 10.9922 8.81152 10.4648 8.81152C9.96094 8.81152 9.55371 8.95508 9.24316 9.24219C8.93848 9.52344 8.78613 9.90723 8.78613 10.3936H6.65039C6.66211 9.35645 7.01367 8.53613 7.70508 7.93262C8.40234 7.3291 9.32227 7.02734 10.4648 7.02734C11.6426 7.02734 12.5596 7.32617 13.2158 7.92383C13.8779 8.52148 14.209 9.35645 14.209 10.4287C14.209 11.3838 13.7637 12.3242 12.873 13.25L11.792 14.3135C11.4053 14.7529 11.2061 15.3945 11.1943 16.2383H9.19922ZM9.0498 18.9717C9.0498 18.626 9.1582 18.3477 9.375 18.1367C9.5918 17.9199 9.88477 17.8115 10.2539 17.8115C10.6289 17.8115 10.9248 17.9229 11.1416 18.1455C11.3584 18.3623 11.4668 18.6377 11.4668 18.9717C11.4668 19.2939 11.3613 19.5635 11.1504 19.7803C10.9395 19.9971 10.6406 20.1055 10.2539 20.1055C9.86719 20.1055 9.56836 19.9971 9.35742 19.7803C9.15234 19.5635 9.0498 19.2939 9.0498 18.9717Z" fill="white"/>
</svg>
