<svg width="23" height="23" viewBox="0 0 23 23" fill="none" xmlns="http://www.w3.org/2000/svg">
<path d="M11.4885 0C5.1405 0 0 5.152 0 11.5C0 17.848 5.1405 23 11.4885 23C17.848 23 23 17.848 23 11.5C23 5.152 17.848 0 11.4885 0Z" fill="#55556B"/>
<path d="M15.525 10.35C16.4777 10.35 17.25 9.57769 17.25 8.625C17.25 7.67231 16.4777 6.9 15.525 6.9C14.5723 6.9 13.8 7.67231 13.8 8.625C13.8 9.57769 14.5723 10.35 15.525 10.35Z" fill="#55556B"/>
<path d="M7.475 10.35C8.42769 10.35 9.2 9.57769 9.2 8.625C9.2 7.67231 8.42769 6.9 7.475 6.9C6.52231 6.9 5.75 7.67231 5.75 8.625C5.75 9.57769 6.52231 10.35 7.475 10.35Z" fill="#55556B"/>
<path d="M15.525 10.35C16.4777 10.35 17.25 9.57769 17.25 8.625C17.25 7.67231 16.4777 6.9 15.525 6.9C14.5723 6.9 13.8 7.67231 13.8 8.625C13.8 9.57769 14.5723 10.35 15.525 10.35Z" fill="white"/>
<path d="M7.475 10.35C8.42769 10.35 9.2 9.57769 9.2 8.625C9.2 7.67231 8.42769 6.9 7.475 6.9C6.52231 6.9 5.75 7.67231 5.75 8.625C5.75 9.57769 6.52231 10.35 7.475 10.35Z" fill="white"/>
<path d="M17.388 13.8C16.468 16.1575 14.1795 17.825 11.5 17.825C8.8205 17.825 6.532 16.1575 5.612 13.8H7.5325C8.3375 15.1685 9.798 16.1 11.5 16.1C13.202 16.1 14.674 15.1685 15.4675 13.8H17.388Z" fill="white"/>
</svg>
