<svg xmlns="http://www.w3.org/2000/svg" width="30" height="30" viewBox="0 0 30 30" fill="none">
  <path
    d="M15 0C6.72867 0 0 6.72867 0 15C0 23.2713 6.72867 30 15 30C23.2713 30 30 23.2713 30 15C30 6.72867 23.2713 0 15 0Z"
    fill="#F7E864"/>
  <path
    d="M15 24C14.4686 24 14.0314 23.8249 13.6886 23.4746C13.3629 23.1068 13.2 22.6689 13.2 22.161C13.2 21.6531 13.3629 21.224 13.6886 20.8737C14.0314 20.5059 14.4686 20.322 15 20.322C15.5314 20.322 15.96 20.5059 16.2857 20.8737C16.6286 21.224 16.8 21.6531 16.8 22.161C16.8 22.6689 16.6286 23.1068 16.2857 23.4746C15.96 23.8249 15.5314 24 15 24ZM13.7914 5.4H16.2086V18.5356H13.7914V5.4Z"
    fill="white"/>
</svg>
