<svg width="64" height="65" viewBox="0 0 64 65" fill="none" xmlns="http://www.w3.org/2000/svg">
  <path d="M31.8182 64.2888C49.3909 64.2888 63.6364 50.0787 63.6364 32.5497C63.6364 15.0206 49.3909 0.810547 31.8182 0.810547C14.2455 0.810547 0 15.0206 0 32.5497C0 50.0787 14.2455 64.2888 31.8182 64.2888Z" fill="#F7E864"/>
  <path d="M29.7087 28.4012L21.2912 20L19 22.2912L27.4012 30.6925L29.7087 28.4012ZM36.0625 20L39.3775 23.315L19 43.7087L21.2912 46L41.685 25.6225L45 28.9375V20H36.0625ZM36.5987 35.2913L34.3075 37.5825L39.3937 42.6688L36.0625 46H45V37.0625L41.685 40.3775L36.5987 35.2913Z" fill="white"/>
</svg>
