<svg width="64" height="64" viewBox="0 0 64 64" fill="none" xmlns="http://www.w3.org/2000/svg">
  <path d="M31.8182 63.4783C49.3909 63.4783 63.6364 49.2682 63.6364 31.7391C63.6364 14.2101 49.3909 0 31.8182 0C14.2455 0 0 14.2101 0 31.7391C0 49.2682 14.2455 63.4783 31.8182 63.4783Z" fill="#F7E864"/>
  <path d="M26.0833 27.7333V21.5C26.0833 19.2 27.95 17.3333 30.25 17.3333C32.55 17.3333 34.4167 19.2 34.4167 21.5V27.7333C36.4333 26.3833 37.75 24.1 37.75 21.5C37.75 17.35 34.4 14 30.25 14C26.1 14 22.75 17.35 22.75 21.5C22.75 24.1 24.0667 26.3833 26.0833 27.7333ZM42.4833 35.45L34.9167 31.6833C34.6333 31.5667 34.3333 31.5 34.0167 31.5H32.75V21.5C32.75 20.1167 31.6333 19 30.25 19C28.8667 19 27.75 20.1167 27.75 21.5V39.4L22.0333 38.2C21.9 38.1833 21.7833 38.15 21.6333 38.15C21.1167 38.15 20.65 38.3667 20.3167 38.7L19 40.0333L27.2333 48.2667C27.6833 48.7167 28.3167 49 29 49H40.3167C41.5667 49 42.5333 48.0833 42.7167 46.8667L43.9667 38.0833C43.9833 37.9667 44 37.85 44 37.75C44 36.7167 43.3667 35.8167 42.4833 35.45Z" fill="white"/>
</svg>
