<svg width="40" height="40" viewBox="0 0 40 40" fill="none" xmlns="http://www.w3.org/2000/svg">
<circle cx="20" cy="20" r="20" fill="black"/>
<path d="M20.2017 13.0778C20.9581 13.0778 21.9063 12.5507 22.4709 11.848C22.9823 11.2111 23.3552 10.3216 23.3552 9.4322C23.3552 9.31141 23.3445 9.19062 23.3232 9.0918C22.4816 9.12474 21.4695 9.67378 20.8623 10.4095C20.3829 10.9695 19.9461 11.848 19.9461 12.7484C19.9461 12.8802 19.9674 13.0119 19.978 13.0559C20.0313 13.0668 20.1165 13.0778 20.2017 13.0778ZM17.5384 26.3645C18.5718 26.3645 19.0299 25.6508 20.3189 25.6508C21.6293 25.6508 21.9169 26.3426 23.0675 26.3426C24.1968 26.3426 24.9532 25.2664 25.6669 24.2123C26.466 23.0044 26.7962 21.8185 26.8175 21.7636C26.7429 21.7416 24.5803 20.8302 24.5803 18.2717C24.5803 16.0536 26.2848 15.0543 26.3807 14.9775C25.2515 13.3084 23.5363 13.2645 23.0675 13.2645C21.7998 13.2645 20.7664 14.0551 20.1165 14.0551C19.4134 14.0551 18.4866 13.3084 17.3892 13.3084C15.3012 13.3084 13.1812 15.0873 13.1812 18.4474C13.1812 20.5337 13.9695 22.7409 14.939 24.1684C15.7699 25.3763 16.4944 26.3645 17.5384 26.3645Z" fill="white"/>
</svg>
