<svg width="20" height="24" viewBox="0 0 20 24" fill="none" xmlns="http://www.w3.org/2000/svg">
<path fill-rule="evenodd" clip-rule="evenodd" d="M3.49913 18.2857C2.89292 18.2857 2.31154 18.5265 1.88288 18.9551C1.45423 19.3838 1.21341 19.9652 1.21341 20.5714C1.21341 20.887 0.957576 21.1428 0.641985 21.1428C0.326394 21.1428 0.0705566 20.887 0.0705566 20.5714C0.0705566 19.6621 0.43178 18.79 1.07476 18.147C1.71774 17.504 2.58981 17.1428 3.49913 17.1428H18.5299C18.8454 17.1428 19.1013 17.3987 19.1013 17.7143C19.1013 18.0298 18.8454 18.2857 18.5299 18.2857H3.49913Z" fill="white"/>
<path fill-rule="evenodd" clip-rule="evenodd" d="M3.50059 1.14286C2.89438 1.14286 2.313 1.38367 1.88435 1.81233C1.45569 2.24098 1.21488 2.82236 1.21488 3.42857V20.5714C1.21488 21.1776 1.45569 21.759 1.88435 22.1877C2.313 22.6163 2.89438 22.8571 3.50059 22.8571H18.0759C17.5675 21.3305 17.6615 19.6555 18.3577 18.1836V1.14286H3.50059ZM1.07623 1.00421C1.71921 0.361223 2.59128 0 3.50059 0H18.9292C19.2448 0 19.5006 0.255837 19.5006 0.571429V18.3143C19.5006 18.4008 19.481 18.4862 19.4432 18.564L19.4139 18.6242C18.7246 20.0431 18.7246 21.6998 19.4139 23.1187L19.4432 23.1789C19.5292 23.356 19.518 23.5649 19.4135 23.7318C19.3091 23.8986 19.126 24 18.9292 24H3.50059C2.59128 24 1.71921 23.6388 1.07623 22.9958C0.433245 22.3528 0.0720215 21.4807 0.0720215 20.5714V3.42857C0.0720215 2.51926 0.433245 1.64719 1.07623 1.00421Z" fill="white"/>
<path fill-rule="evenodd" clip-rule="evenodd" d="M0.949463 1.3141L5.18452 0.649615L10.0242 0.441895L19.0103 0.940409V17.8481L0.949463 18.2218V1.3141ZM12.4713 12.9058H3.70501C3.27496 12.9058 2.92633 13.2544 2.92633 13.6845C2.92633 14.1145 3.27496 14.4631 3.70501 14.4631H12.4713C12.9013 14.4631 13.25 14.1145 13.25 13.6845C13.25 13.2544 12.9013 12.9058 12.4713 12.9058ZM3.70501 8.74731H17.0102C17.4402 8.74731 17.7889 9.09593 17.7889 9.52598C17.7889 9.95604 17.4402 10.3047 17.0102 10.3047H3.70501C3.27496 10.3047 2.92633 9.95604 2.92633 9.52598C2.92633 9.09593 3.27496 8.74731 3.70501 8.74731ZM15.3192 4.5891H3.70501C3.27496 4.5891 2.92633 4.93773 2.92633 5.36778C2.92633 5.79783 3.27496 6.14646 3.70501 6.14646H15.3192C15.7493 6.14646 16.0979 5.79783 16.0979 5.36778C16.0979 4.93773 15.7493 4.5891 15.3192 4.5891Z" fill="white"/>
</svg>
