<svg width="24" height="24" viewBox="0 0 24 24" fill="none" xmlns="http://www.w3.org/2000/svg">
<path d="M23.292 11.496L12.492 0.696C12.06 0.264 11.46 0 10.8 0H2.4C1.08 0 0 1.08 0 2.4V10.8C0 11.46 0.264 12.06 0.708 12.504L11.508 23.304C11.94 23.736 12.54 24 13.2 24C13.86 24 14.46 23.736 14.892 23.292L23.292 14.892C23.736 14.46 24 13.86 24 13.2C24 12.54 23.724 11.928 23.292 11.496ZM4.2 6C3.204 6 2.4 5.196 2.4 4.2C2.4 3.204 3.204 2.4 4.2 2.4C5.196 2.4 6 3.204 6 4.2C6 5.196 5.196 6 4.2 6ZM18.324 15.924L13.2 21.048L8.076 15.924C7.536 15.372 7.2 14.628 7.2 13.8C7.2 12.144 8.544 10.8 10.2 10.8C11.028 10.8 11.784 11.136 12.324 11.688L13.2 12.552L14.076 11.676C14.616 11.136 15.372 10.8 16.2 10.8C17.856 10.8 19.2 12.144 19.2 13.8C19.2 14.628 18.864 15.384 18.324 15.924Z" fill="currentColor"/>
</svg>
