<svg width="111" height="49" viewBox="0 0 111 49" fill="none" xmlns="http://www.w3.org/2000/svg">
  <path d="M22.6507 43.5611V25.3388C22.6507 24.8261 22.2628 24.3964 21.7528 24.3441L2.97486 22.4174C2.15784 22.3335 1.59372 23.2158 2.01268 23.9222L8.17854 34.3188C8.35686 34.6194 8.36523 34.9914 8.20063 35.2997L2.67386 45.6541C2.28853 46.376 2.88612 47.2299 3.69635 47.1151L21.791 44.5512C22.2841 44.4813 22.6507 44.0592 22.6507 43.5611Z" stroke="white" stroke-width="2" stroke-linejoin="round"/>
  <path d="M88.3493 43.5611V25.3388C88.3493 24.8261 88.7372 24.3964 89.2472 24.3441L108.025 22.4174C108.842 22.3335 109.406 23.2158 108.987 23.9222L102.821 34.3188C102.643 34.6194 102.635 34.9914 102.799 35.2997L108.326 45.6541C108.711 46.376 108.114 47.2299 107.304 47.1151L89.209 44.5512C88.7159 44.4813 88.3493 44.0592 88.3493 43.5611Z" stroke="white" stroke-width="2" stroke-linejoin="round"/>
  <path d="M34.0765 22.2147H24.6507C23.5461 22.2147 22.6507 23.1102 22.6507 24.2147V45.3914C22.6507 46.4959 23.5461 47.3914 24.6507 47.3914H86.3493C87.4539 47.3914 88.3493 46.4959 88.3493 45.3914V24.2147C88.3493 23.1102 87.4539 22.2147 86.3493 22.2147H76.9235" stroke="white" stroke-width="2" stroke-linejoin="round"/>
  <path d="M61.1871 13.6741L61.4207 14.1436L61.9397 14.2184L73.6301 15.9033C74.0415 15.9626 74.2052 16.4688 73.9063 16.7576L65.4554 24.9281L65.075 25.2959L65.1651 25.8174L67.1628 37.3697C67.2333 37.7776 66.806 38.0897 66.4389 37.8983L55.9623 32.4353L55.5 32.1942L55.0376 32.4353L44.561 37.8983C44.194 38.0897 43.7666 37.7776 43.8372 37.3697L45.8348 25.8174L45.925 25.2959L45.5445 24.9281L37.0936 16.7576C36.7948 16.4688 36.9584 15.9626 37.3698 15.9033L49.0602 14.2184L49.5793 14.1436L49.8129 13.6741L55.0523 3.14439C55.2363 2.77471 55.7637 2.77471 55.9476 3.14439L61.1871 13.6741Z" stroke="white" stroke-width="2"/>
</svg>
