<svg width="27" height="24" viewBox="0 0 27 24" xmlns="http://www.w3.org/2000/svg">
<path d="M19.8175 2.765C21.69 2.765 23.195 4.27 23.195 6.1425C23.195 8.015 21.69 9.52 19.8175 9.52C17.945 9.52 16.44 8.015 16.44 6.1425C16.4225 4.27 17.945 2.765 19.8175 2.765ZM9.31751 0C11.5925 0 13.4475 1.855 13.4475 4.13C13.4475 6.405 11.5925 8.26 9.31751 8.26C7.04251 8.26 5.18751 6.405 5.18751 4.13C5.18751 1.8375 7.02501 0 9.31751 0ZM9.31751 15.9775V22.54C5.11751 21.2275 1.79251 17.99 0.32251 13.86C2.16001 11.9 6.74501 10.9025 9.31751 10.9025C10.245 10.9025 11.4175 11.0425 12.6425 11.2875C9.77251 12.81 9.31751 14.8225 9.31751 15.9775ZM13.5 23.17C13.0275 23.17 12.5725 23.1525 12.1175 23.1V15.9775C12.1175 13.4925 17.2625 12.25 19.8175 12.25C21.69 12.25 24.9275 12.9325 26.5375 14.2625C24.49 19.46 19.4325 23.17 13.5 23.17Z" fill="currentColor"/>
</svg>
