<svg width="144" height="80" viewBox="0 0 144 80" fill="none" xmlns="http://www.w3.org/2000/svg">
<path d="M29.4636 0C13.2992 0 0.195312 13.1082 0.195312 29.2779C0.195312 50.7399 21.5281 72.0667 29.2392 79.7756L29.4636 80L29.7084 79.7553C38.07 71.3958 58.7319 50.7393 58.7319 29.2779C58.7319 13.1082 45.628 0 29.4636 0Z" fill="url(#paint0_linear)"/>
<g filter="url(#filter0_ddddi)">
<path d="M43.1223 32.7806C43.1223 40.324 37.0071 46.4391 29.4637 46.4391C21.9203 46.4391 15.8052 40.324 15.8052 32.7806C15.8052 25.2372 21.9203 19.1221 29.4637 19.1221C37.0071 19.1221 43.1223 25.2372 43.1223 32.7806Z" fill="white"/>
</g>
<g filter="url(#filter1_ddddi)">
<path fill-rule="evenodd" clip-rule="evenodd" d="M29.4637 20.683C22.7824 20.683 17.3661 26.0992 17.3661 32.7805C17.3661 39.4618 22.7824 44.8781 29.4637 44.8781C36.145 44.8781 41.5612 39.4618 41.5612 32.7805C41.5612 26.0992 36.145 20.683 29.4637 20.683ZM14.2441 32.7805C14.2441 24.375 21.0581 17.561 29.4637 17.561C37.8692 17.561 44.6832 24.375 44.6832 32.7805C44.6832 41.1861 37.8692 48.0001 29.4637 48.0001C21.0581 48.0001 14.2441 41.1861 14.2441 32.7805Z" fill="#55556B"/>
</g>
<g filter="url(#filter2_dddd)">
<path fill-rule="evenodd" clip-rule="evenodd" d="M43.1223 46.439L34.3418 37.6585L36.5493 35.4509L45.3298 44.2314L43.1223 46.439Z" fill="#55556B"/>
</g>
<path d="M71.2074 46.7915C75.9012 46.7915 79.8192 44.5343 79.8192 38.191V19.122H77.5305V38.0742C77.5305 42.6663 75.1642 44.6122 71.2074 44.6122C67.2893 44.6122 64.923 42.6663 64.923 38.0742V19.122H62.6343V38.191C62.6343 44.5343 66.5135 46.7915 71.2074 46.7915Z" fill="#55556B"/>
<path d="M83.7531 19.122V46.3634H97.9898V44.1452H86.0806V33.7545H96.5545V31.5363H86.0806V21.3402H97.7183V19.122H83.7531Z" fill="#55556B"/>
<path d="M115.991 46.8292C120.646 46.8292 124.254 44.4164 124.254 39.513C124.254 30.8736 110.483 32.4302 110.483 25.6588C110.483 22.5066 112.966 20.911 116.34 20.911C118.707 20.911 120.608 21.4947 122.625 22.7401V20.5218C120.569 19.2765 118.59 18.7317 116.185 18.7317C111.763 18.7317 108.155 21.1834 108.155 25.7366C108.155 34.415 121.927 32.547 121.927 39.6687C121.927 42.8598 119.521 44.6499 115.836 44.6499C113.082 44.6499 110.948 44.1051 108.621 42.7041V44.9223C110.871 46.3623 113.121 46.8292 115.991 46.8292Z" fill="#55556B"/>
<path d="M133.991 21.378V46.4012H136.318V21.378H143.805V19.1598H126.504V21.378H133.991Z" fill="#55556B"/>
<path d="M104.878 45.2683C104.878 46.1304 104.179 46.8292 103.317 46.8292C102.455 46.8292 101.756 46.1304 101.756 45.2683C101.756 44.4062 102.455 43.7073 103.317 43.7073C104.179 43.7073 104.878 44.4062 104.878 45.2683Z" fill="#55556B"/>
<defs>
<filter id="filter0_ddddi" x="-16.1948" y="11.1221" width="91.3171" height="91.3171" filterUnits="userSpaceOnUse" color-interpolation-filters="sRGB">
<feFlood flood-opacity="0" result="BackgroundImageFix"/>
<feColorMatrix in="SourceAlpha" type="matrix" values="0 0 0 0 0 0 0 0 0 0 0 0 0 0 0 0 0 0 127 0"/>
<feOffset dy="4"/>
<feGaussianBlur stdDeviation="4"/>
<feColorMatrix type="matrix" values="0 0 0 0 0.254902 0 0 0 0 0.262745 0 0 0 0 0.4 0 0 0 0.07 0"/>
<feBlend mode="normal" in2="BackgroundImageFix" result="effect1_dropShadow"/>
<feColorMatrix in="SourceAlpha" type="matrix" values="0 0 0 0 0 0 0 0 0 0 0 0 0 0 0 0 0 0 127 0"/>
<feOffset dy="16"/>
<feGaussianBlur stdDeviation="12"/>
<feColorMatrix type="matrix" values="0 0 0 0 0.254902 0 0 0 0 0.262745 0 0 0 0 0.4 0 0 0 0.07 0"/>
<feBlend mode="normal" in2="effect1_dropShadow" result="effect2_dropShadow"/>
<feColorMatrix in="SourceAlpha" type="matrix" values="0 0 0 0 0 0 0 0 0 0 0 0 0 0 0 0 0 0 127 0"/>
<feOffset dy="24"/>
<feGaussianBlur stdDeviation="16"/>
<feColorMatrix type="matrix" values="0 0 0 0 0.254902 0 0 0 0 0.262745 0 0 0 0 0.4 0 0 0 0.07 0"/>
<feBlend mode="normal" in2="effect2_dropShadow" result="effect3_dropShadow"/>
<feColorMatrix in="SourceAlpha" type="matrix" values="0 0 0 0 0 0 0 0 0 0 0 0 0 0 0 0 0 0 127 0"/>
<feOffset dy="4"/>
<feGaussianBlur stdDeviation="2"/>
<feColorMatrix type="matrix" values="0 0 0 0 0.331406 0 0 0 0 0.334983 0 0 0 0 0.420833 0 0 0 0.2 0"/>
<feBlend mode="normal" in2="effect3_dropShadow" result="effect4_dropShadow"/>
<feBlend mode="normal" in="SourceGraphic" in2="effect4_dropShadow" result="shape"/>
<feColorMatrix in="SourceAlpha" type="matrix" values="0 0 0 0 0 0 0 0 0 0 0 0 0 0 0 0 0 0 127 0" result="hardAlpha"/>
<feOffset dy="-37"/>
<feGaussianBlur stdDeviation="3"/>
<feComposite in2="hardAlpha" operator="arithmetic" k2="-1" k3="1"/>
<feColorMatrix type="matrix" values="0 0 0 0 0.254902 0 0 0 0 0.262745 0 0 0 0 0.4 0 0 0 0.07 0"/>
<feBlend mode="normal" in2="shape" result="effect5_innerShadow"/>
</filter>
<filter id="filter1_ddddi" x="-17.7559" y="9.56104" width="94.439" height="94.439" filterUnits="userSpaceOnUse" color-interpolation-filters="sRGB">
<feFlood flood-opacity="0" result="BackgroundImageFix"/>
<feColorMatrix in="SourceAlpha" type="matrix" values="0 0 0 0 0 0 0 0 0 0 0 0 0 0 0 0 0 0 127 0"/>
<feOffset dy="4"/>
<feGaussianBlur stdDeviation="4"/>
<feColorMatrix type="matrix" values="0 0 0 0 0.254902 0 0 0 0 0.262745 0 0 0 0 0.4 0 0 0 0.07 0"/>
<feBlend mode="normal" in2="BackgroundImageFix" result="effect1_dropShadow"/>
<feColorMatrix in="SourceAlpha" type="matrix" values="0 0 0 0 0 0 0 0 0 0 0 0 0 0 0 0 0 0 127 0"/>
<feOffset dy="16"/>
<feGaussianBlur stdDeviation="12"/>
<feColorMatrix type="matrix" values="0 0 0 0 0.254902 0 0 0 0 0.262745 0 0 0 0 0.4 0 0 0 0.07 0"/>
<feBlend mode="normal" in2="effect1_dropShadow" result="effect2_dropShadow"/>
<feColorMatrix in="SourceAlpha" type="matrix" values="0 0 0 0 0 0 0 0 0 0 0 0 0 0 0 0 0 0 127 0"/>
<feOffset dy="24"/>
<feGaussianBlur stdDeviation="16"/>
<feColorMatrix type="matrix" values="0 0 0 0 0.254902 0 0 0 0 0.262745 0 0 0 0 0.4 0 0 0 0.07 0"/>
<feBlend mode="normal" in2="effect2_dropShadow" result="effect3_dropShadow"/>
<feColorMatrix in="SourceAlpha" type="matrix" values="0 0 0 0 0 0 0 0 0 0 0 0 0 0 0 0 0 0 127 0"/>
<feOffset dy="4"/>
<feGaussianBlur stdDeviation="2"/>
<feColorMatrix type="matrix" values="0 0 0 0 0.331406 0 0 0 0 0.334983 0 0 0 0 0.420833 0 0 0 0.2 0"/>
<feBlend mode="normal" in2="effect3_dropShadow" result="effect4_dropShadow"/>
<feBlend mode="normal" in="SourceGraphic" in2="effect4_dropShadow" result="shape"/>
<feColorMatrix in="SourceAlpha" type="matrix" values="0 0 0 0 0 0 0 0 0 0 0 0 0 0 0 0 0 0 127 0" result="hardAlpha"/>
<feOffset dy="-37"/>
<feGaussianBlur stdDeviation="3"/>
<feComposite in2="hardAlpha" operator="arithmetic" k2="-1" k3="1"/>
<feColorMatrix type="matrix" values="0 0 0 0 0.254902 0 0 0 0 0.262745 0 0 0 0 0.4 0 0 0 0.07 0"/>
<feBlend mode="normal" in2="shape" result="effect5_innerShadow"/>
</filter>
<filter id="filter2_dddd" x="2.3418" y="27.4509" width="74.988" height="74.988" filterUnits="userSpaceOnUse" color-interpolation-filters="sRGB">
<feFlood flood-opacity="0" result="BackgroundImageFix"/>
<feColorMatrix in="SourceAlpha" type="matrix" values="0 0 0 0 0 0 0 0 0 0 0 0 0 0 0 0 0 0 127 0"/>
<feOffset/>
<feGaussianBlur stdDeviation="0.5"/>
<feColorMatrix type="matrix" values="0 0 0 0 0.254902 0 0 0 0 0.262745 0 0 0 0 0.4 0 0 0 0.07 0"/>
<feBlend mode="normal" in2="BackgroundImageFix" result="effect1_dropShadow"/>
<feColorMatrix in="SourceAlpha" type="matrix" values="0 0 0 0 0 0 0 0 0 0 0 0 0 0 0 0 0 0 127 0"/>
<feOffset dy="4"/>
<feGaussianBlur stdDeviation="4"/>
<feColorMatrix type="matrix" values="0 0 0 0 0.254902 0 0 0 0 0.262745 0 0 0 0 0.4 0 0 0 0.07 0"/>
<feBlend mode="normal" in2="effect1_dropShadow" result="effect2_dropShadow"/>
<feColorMatrix in="SourceAlpha" type="matrix" values="0 0 0 0 0 0 0 0 0 0 0 0 0 0 0 0 0 0 127 0"/>
<feOffset dy="16"/>
<feGaussianBlur stdDeviation="12"/>
<feColorMatrix type="matrix" values="0 0 0 0 0.254902 0 0 0 0 0.262745 0 0 0 0 0.4 0 0 0 0.07 0"/>
<feBlend mode="normal" in2="effect2_dropShadow" result="effect3_dropShadow"/>
<feColorMatrix in="SourceAlpha" type="matrix" values="0 0 0 0 0 0 0 0 0 0 0 0 0 0 0 0 0 0 127 0"/>
<feOffset dy="24"/>
<feGaussianBlur stdDeviation="16"/>
<feColorMatrix type="matrix" values="0 0 0 0 0.254902 0 0 0 0 0.262745 0 0 0 0 0.4 0 0 0 0.07 0"/>
<feBlend mode="normal" in2="effect3_dropShadow" result="effect4_dropShadow"/>
<feBlend mode="normal" in="SourceGraphic" in2="effect4_dropShadow" result="shape"/>
</filter>
<linearGradient id="paint0_linear" x1="8.09775" y1="9.17073" x2="148.293" y2="150.732" gradientUnits="userSpaceOnUse">
<stop stop-color="#68DFDF"/>
<stop offset="0.0644046" stop-color="#68C6DF"/>
<stop offset="0.458041" stop-color="#686DDF"/>
</linearGradient>
</defs>
</svg>
