<svg width="15" height="24" viewBox="0 0 15 24" fill="none" xmlns="http://www.w3.org/2000/svg">
<path d="M8.37209 4.46512C9.6 4.46512 10.6047 3.46047 10.6047 2.23256C10.6047 1.00465 9.6 0 8.37209 0C7.14419 0 6.13953 1.00465 6.13953 2.23256C6.13953 3.46047 7.14419 4.46512 8.37209 4.46512ZM4.24186 8.26046L1.11628 24H3.46047L5.46977 15.0698L7.81395 17.3023V24H10.0465V15.6279L7.70233 13.3953L8.37209 10.0465C9.82326 11.7209 12.0558 12.8372 14.5116 12.8372V10.6047C12.3907 10.6047 10.6047 9.48837 9.71163 7.92558L8.59535 6.13953C8.14884 5.46977 7.47907 5.02326 6.69767 5.02326C6.36279 5.02326 6.13953 5.13488 5.80465 5.13488L0 7.5907V12.8372H2.23256V9.04186L4.24186 8.26046Z" fill="white"/>
</svg>
