<svg width="30" height="30" viewBox="0 0 30 30" fill="none" xmlns="http://www.w3.org/2000/svg">
<circle cx="15" cy="15" r="15" transform="rotate(90 15 15)" fill="white"/>
<circle cx="15" cy="15" r="15" transform="rotate(90 15 15)" fill="#8EB2BC" fill-opacity="0.1"/>
<path d="M14.1455 17.8547C14.1455 17.1639 14.2182 16.5968 14.3636 16.1536C14.5212 15.6974 14.7152 15.3128 14.9455 15C15.1758 14.6872 15.4182 14.4199 15.6727 14.1983C15.9394 13.9767 16.1879 13.7551 16.4182 13.5335C16.6485 13.2989 16.8364 13.0447 16.9818 12.7709C17.1394 12.4842 17.2182 12.1192 17.2182 11.676C17.2182 11.1155 17.0364 10.6592 16.6727 10.3073C16.3091 9.94227 15.7818 9.75978 15.0909 9.75978C14.3394 9.75978 13.7758 9.94879 13.4 10.3268C13.0364 10.7048 12.8303 11.2523 12.7818 11.9693H11C11.0242 11.3827 11.1333 10.8482 11.3273 10.3659C11.5212 9.87058 11.7879 9.44693 12.1273 9.09497C12.4667 8.74302 12.8788 8.47579 13.3636 8.2933C13.8485 8.09777 14.3939 8 15 8C15.6424 8 16.2121 8.09125 16.7091 8.27374C17.2061 8.45624 17.6242 8.71043 17.9636 9.03631C18.303 9.34916 18.5576 9.72719 18.7273 10.1704C18.9091 10.6006 19 11.0698 19 11.5782C19 12.1778 18.9212 12.6732 18.7636 13.0642C18.6061 13.4553 18.4121 13.7942 18.1818 14.081C17.9515 14.3678 17.697 14.6285 17.4182 14.8631C17.1515 15.0847 16.903 15.3324 16.6727 15.6061C16.4424 15.8669 16.2485 16.1732 16.0909 16.5251C15.9333 16.8771 15.8545 17.3203 15.8545 17.8547H14.1455ZM15 22C14.6242 22 14.3152 21.8696 14.0727 21.6089C13.8424 21.3352 13.7273 21.0093 13.7273 20.6313C13.7273 20.2533 13.8424 19.9339 14.0727 19.6732C14.3152 19.3994 14.6242 19.2626 15 19.2626C15.3758 19.2626 15.6788 19.3994 15.9091 19.6732C16.1515 19.9339 16.2727 20.2533 16.2727 20.6313C16.2727 21.0093 16.1515 21.3352 15.9091 21.6089C15.6788 21.8696 15.3758 22 15 22Z" fill="#55556B"/>
</svg>
