<svg width="20" height="20" viewBox="0 0 20 20" fill="none" xmlns="http://www.w3.org/2000/svg">
<path d="M17.619 9.52381H16.1905V5.71429C16.1905 4.66667 15.3333 3.80952 14.2857 3.80952H10.4762V2.38095C10.4762 1.06667 9.40952 0 8.09524 0C6.78095 0 5.71429 1.06667 5.71429 2.38095V3.80952H1.90476C0.857143 3.80952 0.0095238 4.66667 0.0095238 5.71429V9.33333H1.42857C2.84762 9.33333 4 10.4857 4 11.9048C4 13.3238 2.84762 14.4762 1.42857 14.4762H0V18.0952C0 19.1429 0.857143 20 1.90476 20H5.52381V18.5714C5.52381 17.1524 6.67619 16 8.09524 16C9.51429 16 10.6667 17.1524 10.6667 18.5714V20H14.2857C15.3333 20 16.1905 19.1429 16.1905 18.0952V14.2857H17.619C18.9333 14.2857 20 13.219 20 11.9048C20 10.5905 18.9333 9.52381 17.619 9.52381Z" fill="white"/>
</svg>
