<svg width="64" height="65" viewBox="0 0 64 65" fill="none" xmlns="http://www.w3.org/2000/svg">
<path d="M31.8182 64.2887C49.3909 64.2887 63.6364 50.0786 63.6364 32.5496C63.6364 15.0205 49.3909 0.810448 31.8182 0.810448C14.2455 0.810448 0 15.0205 0 32.5496C0 50.0786 14.2455 64.2887 31.8182 64.2887Z" fill="#F7E864"/>
<path d="M29.65 40.3408C29.65 38.5642 29.85 37.1061 30.25 35.9665C30.6833 34.7933 31.2167 33.8045 31.85 33C32.4833 32.1955 33.15 31.5084 33.85 30.9385C34.5833 30.3687 35.2667 29.7989 35.9 29.229C36.5333 28.6257 37.05 27.9721 37.45 27.2682C37.8833 26.5307 38.1 25.5922 38.1 24.4525C38.1 23.0112 37.6 21.838 36.6 20.933C35.6 19.9944 34.15 19.5251 32.25 19.5251C30.1833 19.5251 28.6333 20.0112 27.6 20.9832C26.6 21.9553 26.0333 23.3631 25.9 25.2067H21C21.0667 23.6983 21.3667 22.324 21.9 21.0838C22.4333 19.8101 23.1667 18.7207 24.1 17.8156C25.0333 16.9106 26.1667 16.2235 27.5 15.7542C28.8333 15.2514 30.3333 15 32 15C33.7667 15 35.3333 15.2346 36.7 15.7039C38.0667 16.1732 39.2167 16.8268 40.15 17.6648C41.0833 18.4693 41.7833 19.4413 42.25 20.581C42.75 21.6872 43 22.8939 43 24.2011C43 25.743 42.7833 27.0168 42.35 28.0223C41.9167 29.0279 41.3833 29.8994 40.75 30.6369C40.1167 31.3743 39.4167 32.0447 38.65 32.648C37.9167 33.2179 37.2333 33.8547 36.6 34.5587C35.9667 35.229 35.4333 36.0168 35 36.9218C34.5667 37.8268 34.35 38.9665 34.35 40.3408H29.65ZM32 51C30.9667 51 30.1167 50.6648 29.45 49.9944C28.8167 49.2905 28.5 48.4525 28.5 47.4804C28.5 46.5084 28.8167 45.6872 29.45 45.0168C30.1167 44.3129 30.9667 43.9609 32 43.9609C33.0333 43.9609 33.8667 44.3129 34.5 45.0168C35.1667 45.6872 35.5 46.5084 35.5 47.4804C35.5 48.4525 35.1667 49.2905 34.5 49.9944C33.8667 50.6648 33.0333 51 32 51Z" fill="white"/>
</svg>
