<svg width="64" height="65" viewBox="0 0 64 65" fill="none" xmlns="http://www.w3.org/2000/svg">
<path d="M31.8182 64.2887C49.3909 64.2887 63.6364 50.0786 63.6364 32.5496C63.6364 15.0205 49.3909 0.810425 31.8182 0.810425C14.2455 0.810425 0 15.0205 0 32.5496C0 50.0786 14.2455 64.2887 31.8182 64.2887Z" fill="#F7E864"/>
<path d="M18 41.1675V47H23.8325L41.0346 29.7979L35.2021 23.9654L18 41.1675ZM45.5451 25.2875C46.1516 24.6809 46.1516 23.701 45.5451 23.0944L41.9056 19.4549C41.299 18.8484 40.3191 18.8484 39.7125 19.4549L36.8663 22.3012L42.6988 28.1337L45.5451 25.2875Z" fill="white"/>
</svg>
