<svg width="26" height="22" viewBox="0 0 26 22" fill="none" xmlns="http://www.w3.org/2000/svg">
<path fill-rule="evenodd" clip-rule="evenodd" d="M0.177734 10.4237C0.177734 7.15247 2.83875 4.49146 6.10994 4.49146C9.38112 4.49146 12.0421 7.15247 12.0421 10.4237C12.0421 14.8728 6.10994 21.4406 6.10994 21.4406C6.10994 21.4406 0.177734 14.8728 0.177734 10.4237ZM6.10994 12.966C7.51405 12.966 8.65231 11.8278 8.65231 10.4237C8.65231 9.01954 7.51405 7.88129 6.10994 7.88129C4.70582 7.88129 3.56756 9.01954 3.56756 10.4237C3.56756 11.8278 4.70582 12.966 6.10994 12.966Z" fill="white"/>
<path fill-rule="evenodd" clip-rule="evenodd" d="M16.2795 5.00848C16.2795 2.55509 18.2753 0.559326 20.7287 0.559326C23.1821 0.559326 25.1778 2.55509 25.1778 5.00848C25.1778 8.34534 20.7287 13.2712 20.7287 13.2712C20.7287 13.2712 16.2795 8.34534 16.2795 5.00848ZM20.7287 6.91526C21.7818 6.91526 22.6355 6.06156 22.6355 5.00848C22.6355 3.95539 21.7818 3.1017 20.7287 3.1017C19.6756 3.1017 18.8219 3.95539 18.8219 5.00848C18.8219 6.06156 19.6756 6.91526 20.7287 6.91526Z" fill="white"/>
<path d="M15.7493 14.7196C15.387 14.9581 15.2703 15.1749 15.2703 15.3652C15.2703 15.4966 15.3391 15.6496 15.5923 15.8642C15.8018 16.0416 16.0649 16.2024 16.3727 16.3905L16.3727 16.3905C16.4469 16.4359 16.5237 16.4828 16.603 16.532C16.9818 16.7668 17.4168 17.0528 17.7265 17.425C18.057 17.8222 18.2531 18.3284 18.1281 18.9533C18.0418 19.384 17.7553 19.7095 17.4246 19.9504C17.0927 20.1923 16.6702 20.3836 16.214 20.539C15.2998 20.8504 14.1454 21.0516 13.0336 21.1838C11.916 21.3167 10.8148 21.3829 9.99507 21.4159L9.13803 21.4366C8.85743 21.4434 8.62623 21.2179 8.62605 20.9372C8.62587 20.6658 8.8424 20.4438 9.11379 20.4372L9.95482 20.4167C10.7593 20.3843 11.8326 20.3196 12.9155 20.1908C14.0044 20.0613 15.0768 19.8699 15.8916 19.5924C16.3 19.4533 16.6176 19.3011 16.8358 19.1422C17.0553 18.9823 17.1289 18.8497 17.1475 18.757C17.203 18.4796 17.1311 18.2729 16.9578 18.0646C16.7637 17.8314 16.4592 17.6194 16.0761 17.3819C16.0133 17.343 15.9478 17.303 15.8805 17.2621L15.8803 17.2619L15.8803 17.2619C15.5686 17.0719 15.2207 16.8599 14.946 16.6272C14.6051 16.3385 14.2703 15.9319 14.2703 15.3652C14.2703 14.6832 14.7169 14.202 15.1995 13.8843C15.6871 13.5633 16.3097 13.3393 16.8925 13.1814C17.4824 13.0214 18.0675 12.9198 18.502 12.8581L18.7203 12.8328C19.0019 12.8001 19.2543 13.008 19.2762 13.2907C19.2968 13.5584 19.1024 13.7946 18.8357 13.8256L18.6426 13.8482C18.2321 13.9064 17.6907 14.0011 17.1541 14.1465C16.6104 14.2939 16.1065 14.4844 15.7493 14.7196Z" fill="white"/>
</svg>
