<svg width="20" height="20" viewBox="0 0 20 20" fill="none" xmlns="http://www.w3.org/2000/svg">
<path d="M17.4764 10.536C17.5125 10.236 17.5365 9.924 17.5365 9.6C17.5365 9.276 17.5125 8.964 17.4644 8.664L19.4929 7.08C19.6729 6.936 19.7209 6.672 19.6129 6.468L17.6925 3.144C17.5725 2.928 17.3204 2.856 17.1044 2.928L14.7159 3.888C14.2118 3.504 13.6837 3.192 13.0956 2.952L12.7355 0.408C12.6995 0.168 12.4954 0 12.2554 0H8.41461C8.17456 0 7.98253 0.168 7.94652 0.408L7.58645 2.952C6.99833 3.192 6.45822 3.516 5.96612 3.888L3.57764 2.928C3.36159 2.844 3.10954 2.928 2.98952 3.144L1.06913 6.468C0.949104 6.684 0.997114 6.936 1.18915 7.08L3.21756 8.664C3.16955 8.964 3.13355 9.288 3.13355 9.6C3.13355 9.912 3.15755 10.236 3.20556 10.536L1.17715 12.12C0.997114 12.264 0.949104 12.528 1.05713 12.732L2.97751 16.056C3.09754 16.272 3.34959 16.344 3.56563 16.272L5.95412 15.312C6.45822 15.696 6.98632 16.008 7.57444 16.248L7.93452 18.792C7.98253 19.032 8.17456 19.2 8.41461 19.2H12.2554C12.4954 19.2 12.6995 19.032 12.7235 18.792L13.0836 16.248C13.6717 16.008 14.2118 15.684 14.7039 15.312L17.0924 16.272C17.3084 16.356 17.5605 16.272 17.6805 16.056L19.6009 12.732C19.7209 12.516 19.6729 12.264 19.4808 12.12L17.4764 10.536V10.536ZM10.335 13.2C8.3546 13.2 6.73427 11.58 6.73427 9.6C6.73427 7.62 8.3546 6 10.335 6C12.3154 6 13.9357 7.62 13.9357 9.6C13.9357 11.58 12.3154 13.2 10.335 13.2Z" fill="#55556B"/>
</svg>
