<svg width="69" height="20" viewBox="0 0 69 20" fill="none" xmlns="http://www.w3.org/2000/svg">
  <path d="M10 0L12.9389 5.95492L19.5106 6.90983L14.7553 11.5451L15.8779 18.0902L10 15L4.12215 18.0902L5.24472 11.5451L0.489435 6.90983L7.06107 5.95492L10 0Z" fill="#F7E864"/>
  <path d="M35 0L37.9389 5.95492L44.5106 6.90983L39.7553 11.5451L40.8779 18.0902L35 15L29.1221 18.0902L30.2447 11.5451L25.4894 6.90983L32.0611 5.95492L35 0Z" fill="#F7E864"/>
  <path d="M59 0L61.9389 5.95492L68.5106 6.90983L63.7553 11.5451L64.8779 18.0902L59 15L53.1221 18.0902L54.2447 11.5451L49.4894 6.90983L56.0611 5.95492L59 0Z" fill="#F7E864"/>
</svg>
