<svg width="30" height="30" viewBox="0 0 30 30" fill="none" xmlns="http://www.w3.org/2000/svg">
  <path d="M15 30C23.2843 30 30 23.2843 30 15C30 6.71573 23.2843 0 15 0C6.71573 0 0 6.71573 0 15C0 23.2843 6.71573 30 15 30Z" fill="#68C6DF"/>
  <path d="M13.9779 18.6822C13.9779 17.8426 14.0722 17.1535 14.2607 16.6149C14.465 16.0604 14.7165 15.5931 15.015 15.2129C15.3136 14.8327 15.6279 14.508 15.9579 14.2387C16.3036 13.9694 16.6257 13.7 16.9243 13.4307C17.2229 13.1456 17.4665 12.8367 17.655 12.504C17.8593 12.1555 17.9615 11.7119 17.9615 11.1733C17.9615 10.4922 17.7257 9.93771 17.2543 9.50999C16.7829 9.06643 16.0993 8.84465 15.2036 8.84465C14.2293 8.84465 13.4986 9.07435 13.0115 9.53375C12.54 9.99315 12.2729 10.6585 12.21 11.5298H9.90002C9.93145 10.8169 10.0729 10.1674 10.3243 9.58127C10.5757 8.9793 10.9215 8.46445 11.3615 8.03674C11.8015 7.60902 12.3357 7.28427 12.9643 7.06249C13.5929 6.82487 14.3 6.70605 15.0857 6.70605C15.9186 6.70605 16.6572 6.81694 17.3015 7.03872C17.9457 7.2605 18.4879 7.56941 18.9279 7.96545C19.3679 8.34564 19.6979 8.80504 19.9179 9.34365C20.1536 9.86642 20.2715 10.4367 20.2715 11.0545C20.2715 11.7832 20.1693 12.3852 19.965 12.8605C19.7607 13.3357 19.5093 13.7476 19.2107 14.0961C18.9122 14.4446 18.5822 14.7614 18.2207 15.0466C17.875 15.3159 17.5529 15.6169 17.2543 15.9495C16.9557 16.2664 16.7043 16.6386 16.5 17.0664C16.2957 17.4941 16.1936 18.0327 16.1936 18.6822H13.9779ZM15.0857 23.7198C14.5986 23.7198 14.1979 23.5613 13.8836 23.2445C13.585 22.9118 13.4357 22.5158 13.4357 22.0564C13.4357 21.597 13.585 21.2089 13.8836 20.8921C14.1979 20.5594 14.5986 20.3931 15.0857 20.3931C15.5729 20.3931 15.9657 20.5594 16.2643 20.8921C16.5786 21.2089 16.7357 21.597 16.7357 22.0564C16.7357 22.5158 16.5786 22.9118 16.2643 23.2445C15.9657 23.5613 15.5729 23.7198 15.0857 23.7198Z" fill="white"/>
</svg>
