<svg width="34" height="22" viewBox="0 0 34 22" fill="none" xmlns="http://www.w3.org/2000/svg">
<path d="M2.25 17.126C1.962 17.126 1.722 17.03 1.53 16.838C1.35 16.646 1.26 16.412 1.26 16.136C1.26 15.86 1.35 15.626 1.53 15.434C1.722 15.242 1.962 15.146 2.25 15.146C2.538 15.146 2.772 15.242 2.952 15.434C3.144 15.626 3.24 15.86 3.24 16.136C3.24 16.412 3.144 16.646 2.952 16.838C2.772 17.03 2.538 17.126 2.25 17.126ZM7.74 17.126C7.452 17.126 7.212 17.03 7.02 16.838C6.84 16.646 6.75 16.412 6.75 16.136C6.75 15.86 6.84 15.626 7.02 15.434C7.212 15.242 7.452 15.146 7.74 15.146C8.028 15.146 8.262 15.242 8.442 15.434C8.634 15.626 8.73 15.86 8.73 16.136C8.73 16.412 8.634 16.646 8.442 16.838C8.262 17.03 8.028 17.126 7.74 17.126ZM13.23 17.126C12.942 17.126 12.702 17.03 12.51 16.838C12.33 16.646 12.24 16.412 12.24 16.136C12.24 15.86 12.33 15.626 12.51 15.434C12.702 15.242 12.942 15.146 13.23 15.146C13.518 15.146 13.752 15.242 13.932 15.434C14.124 15.626 14.22 15.86 14.22 16.136C14.22 16.412 14.124 16.646 13.932 16.838C13.752 17.03 13.518 17.126 13.23 17.126Z" fill="#222222"/>
<path opacity="0.8" d="M29.5909 3.58492C29.7763 3.39948 29.9964 3.25238 30.2387 3.15201C30.481 3.05165 30.7407 3 31.003 3C31.2652 3 31.5249 3.05165 31.7672 3.15201C32.0095 3.25238 32.2296 3.39948 32.4151 3.58492C32.6005 3.77036 32.7476 3.99051 32.848 4.2328C32.9483 4.47509 33 4.73478 33 4.99703C33 5.25928 32.9483 5.51897 32.848 5.76126C32.7476 6.00355 32.6005 6.2237 32.4151 6.40914L22.8833 15.9409L19 17L20.0591 13.1167L29.5909 3.58492Z" stroke="#222222" stroke-linecap="round" stroke-linejoin="round"/>
</svg>
