<svg width="50" height="50" viewBox="0 0 50 50" fill="none" xmlns="http://www.w3.org/2000/svg">
<circle cx="25" cy="25" r="25" fill="#68C6DF"/>
<path d="M26.2308 16.8372C27.5846 16.8372 28.6923 15.7488 28.6923 14.4186C28.6923 13.0884 27.5846 12 26.2308 12C24.8769 12 23.7692 13.0884 23.7692 14.4186C23.7692 15.7488 24.8769 16.8372 26.2308 16.8372ZM21.6769 20.9488L18.2308 38H20.8154L23.0308 28.3256L25.6154 30.7442V38H28.0769V28.9302L25.4923 26.5116L26.2308 22.8837C27.8308 24.6977 30.2923 25.907 33 25.907V23.4884C30.6615 23.4884 28.6923 22.2791 27.7077 20.586L26.4769 18.6512C25.9846 17.9256 25.2462 17.4419 24.3846 17.4419C24.0154 17.4419 23.7692 17.5628 23.4 17.5628L17 20.2233V25.907H19.4615V21.7953L21.6769 20.9488Z" fill="white"/>
</svg>
